<?xml version="1.0" encoding="utf-8"?>
<!-- Generator: Adobe Illustrator 15.1.0, SVG Export Plug-In . SVG Version: 6.00 Build 0)  -->
<!DOCTYPE svg PUBLIC "-//W3C//DTD SVG 1.1//EN" "http://www.w3.org/Graphics/SVG/1.1/DTD/svg11.dtd">
<svg version="1.1" id="Layer_1" xmlns="http://www.w3.org/2000/svg" xmlns:xlink="http://www.w3.org/1999/xlink" x="0px" y="0px"
	 width="300px" height="177px" viewBox="-131 24.5 300 177" enable-background="new -131 24.5 300 177" xml:space="preserve">
<path fill="#26282A" d="M57.721,172.953c-0.068-2.072,2.006-2.911,2.731-4.605c-7.336-3.76-13.16-10.056-18.022-16.748
	c-1.631-2.244-3.461-4.729-4.507-7.117c-1.315-3.002-1.077-6.885-2.594-9.627c-1.882-3.407-7.197-5.61-9.013-9.213
	c-1.543-3.062,0.283-5.062,1.775-7.115c1.09-1.504,1.98-2.961,3.004-3.907c0.717,1.004,1.133,1.979,2.459,2.092
	c0.816,0.069,1.627-1.129,2.047-1.116c0.15,0.006,1.002,0.92,1.502,1.256c3.609,2.422,5.096-2.199,6.555-5.164
	c0.652-1.328,2.465-6.344,4.096-6.418c1.368-0.062,1.959,1.598,3.004,1.535C55.913,89.512,61.596,72.757,62.5,51.121
	c-3.066,13.201-5.74,26.712-11.195,37.263c-0.771-1.402,0.248-2.937,0.682-4.189c3.437-9.921,6.484-20.574,8.33-32.097
	c-4.088,12.57-7.893,25.428-13.381,36.563c-0.389-0.07-0.197-0.729-0.819-0.56c-1.161,2.953-2.763,5.459-4.369,7.957
	c1.071-2.304-1.115-7.236-2.595-7.675c-2.418-0.72-4.779,0.873-6.555-0.699c-0.34,0.926-0.783,0.627-1.365,0.836
	c-0.188,0.068-0.168,0.504-0.271,0.558c-0.679,0.358-1.761,0.422-2.048,1.256c-0.581,1.688,1.095,3.16,0.546,5.583
	c-2.175-2.566-4.859-4.79-6.689-7.816c-2.845-4.701-4.578-10.334-7.375-15.211c6.893-5.602,11.169-17.533,7.101-29.026
	c-3.325-9.386-12.206-18.19-25.124-17.302c-13.784,0.941-24.509,14.252-21.3,30.561C-21.296,70.496-9.79,80.886,6.793,77.496
	c2.313,7.512,6.211,13.416,10.65,18.562c1.521,1.763,3.345,3.178,4.78,5.022c-1.656,1.171-4.973,0.885-5.463,2.933
	c-0.226,0.94,0.433,2.623,0.683,3.904c0.826,4.237,0.391,9.016,0.683,13.121c0.154,2.172,1.052,4.37,1.229,6.695
	c0.191,2.516,0.121,5.113,0.409,7.677c1.073,9.556,4.637,16.84,8.192,24.003c0.905,1.826,1.78,3.686,2.458,5.583
	c0.715,2.004,1.016,4.229,1.773,6.278c0.217,0.584,0.658,1.059,0.819,1.535c0.007,0.021,8.091,9.683,0.416,21.617
	c-0.086,0.135-0.065,0.221,0.029,0.269H14.02c-0.948,0-2.852,1.896-2.852,2.85v1.427c0,0.953,1.904,2.851,2.852,2.851h42.773
	c0.948,0,2.852-1.896,2.852-2.851v-1.427c0-0.954-1.902-2.85-2.852-2.85H34.221c0.752-0.123,1.823-0.47,2.459-0.794
	c1.146-0.588,0.928-1.93,3.727-4.478c1.888-1.718,4.117-2.475,3.686-3.768c-0.564-1.688-1.549-1.382-2.754-2.103
	c-0.488-1.824-0.626-4.012-0.546-6.421C47.564,178.814,54.729,176.907,57.721,172.953L57.721,172.953z M21.54,43.029
	c4.125,10.382,0.929,24.151-6.554,29.027c-0.99-1.819,0.417-3.494,0.955-5.303c0.294-0.989,0.516-1.994,0.683-3.071
	c0.156-1-0.05-2.323,0.273-3.35c0.314-1.001,2.372-2.155,3.276-3.209c2.429-2.831,4.53-8.663,0.82-12.559
	c-0.882-5.647-5.116-9.033-10.923-9.492c-0.753-0.057-1.64,0.203-2.458,0c-0.913-0.224-1.985-1.544-3.004-2.37
	c-2.963-2.404-6.645-4.141-11.06-4.746C6.595,24.396,17.693,33.342,21.54,43.029L21.54,43.029z M7.203,61.309
	c-0.074,0.539,0.244,0.683,0.136,1.256c-1.628,0.568-3.332,2.752-5.188,1.397c-0.136,0.589-1.037,0.302-0.683,0.975
	c-0.833,0.313-1.827,0.459-2.867,0.56c-3.234-6.42-5.866-13.45-7.51-21.493c3.339-1.288,6.934-2.308,11.196-2.651
	C4.753,46.8,7.554,53.35,8.294,59.634c-0.048,0.195-0.24,0.013-0.273-0.139C7.084,59.706,8.238,61.198,7.203,61.309z M-1.809,68.006
	c2.2,2.917,3.772,6.471,7.1,8.235c-6.886,0.432-11.35-3.565-14.336-7.116C-6.237,69.155-3.907,68.7-1.809,68.006z M-10.411,67.868
	c-0.137-0.185-0.129-0.519-0.409-0.557c-0.025-0.118,0.053-0.132,0.136-0.14c1.511,0.223,3.143,0.322,4.916,0.278
	c0.023,0.302-0.484,0.064-0.683,0.141C-7.705,67.749-8.989,67.879-10.411,67.868z M-0.17,67.728c0.248-0.399,0.834-0.45,1.365-0.557
	c0.561,3.659,3.7,4.684,4.779,7.812C3.391,73.671,1.556,70.384-0.17,67.728z M6.52,36.468c1.317,0.7,1.844,2.208,2.868,3.209
	c-1.516,0.015-4.177-0.01-6.145,0c-0.229-0.901-1.151-1.771-1.092-2.51c0.662,0.023,1.094-0.185,1.639-0.282
	C3.556,39.035,7.176,38.893,6.52,36.468z M20.994,46.237c3.173,3.37-0.256,8.747-2.595,10.746c-0.494-0.333-0.735-0.924-1.639-0.837
	C18.703,53.386,20.762,50.746,20.994,46.237z M16.624,54.19c-1.002-4.696-2.505-8.881-4.506-12.559
	c3.198,0.593,5.912,1.681,7.919,3.489C19.963,49.232,18.194,51.61,16.624,54.19L16.624,54.19z M18.262,42.329
	c-1.922-1.111-4.558-1.987-7.236-2.371c-0.752-1.186-1.54-2.336-2.458-3.351c5.625-0.167,10.342,1.804,11.47,6.699
	C19.462,43.372,18.917,42.709,18.262,42.329z M1.332,35.91c-1.482-2.066-2.742-4.362-4.642-6c3.438,0.673,6.593,2.843,8.739,5.302
	C3.874,35.252,2.557,35.534,1.332,35.91z M0.513,37.724c0.166,0.9,0.883,1.236,0.955,2.234c-4.097,0.276-7.342,1.426-10.649,2.509
	c0.297-0.854,1.321-1.119,2.048-1.535c2.134-1.212,4.664-2.35,7.374-3.208H0.513z M4.199,41.494
	c0.025-0.122-0.053-0.132-0.137-0.141c1.603-0.632,4.434-0.179,6.144,0c1.767,2.182,3.4,6.252,4.37,10.048
	c0.337,1.323,0.94,2.991,0.818,3.909c-0.241,1.83-3.684,3.844-4.778,4.605c-0.761-0.53-0.63-1.583-0.819-2.374
	C8.468,51.987,6.352,46.326,4.199,41.494z M11.299,70.102c0.451,0.469,0.366,1.485,0.683,2.092c-0.183,0.605-0.69,0.875-0.956,1.395
	C10.887,72.749,11.486,71.457,11.299,70.102L11.299,70.102z M12.391,73.449c-0.098,0.428,0.14,0.509,0.137,0.837
	c-0.881,0.543-1.878,0.965-2.731,1.535C10.106,75.021,11.541,74.163,12.391,73.449z M12.391,63.962
	c-0.31-0.151-0.496-0.423-0.546-0.839c0.204-0.162,0.559-0.172,0.683-0.417C12.871,62.975,12.367,63.554,12.391,63.962
	L12.391,63.962z M11.026,61.729c1.517-1.382,3.199-2.594,4.505-4.188c0.314,0.284,0.05,1.159,0.137,1.676
	C14.142,60.076,12.852,61.174,11.026,61.729z M13.756,62.145c0.493-0.425,1.265-0.567,1.638-1.116
	c0.146-0.02,0.259,0.028,0.273,0.142c0.358,2.784-1.181,5.902-1.775,8.092C13.007,67.456,13.691,64.305,13.756,62.145z
	 M-8.909,29.49c0.908-0.049,1.699-0.214,2.73-0.138c2.404,1.821,4.208,4.257,5.735,6.975c-3.296,1.098-6.39,2.401-9.012,4.189
	C-10.047,37.203-10.215,32.085-8.909,29.49z M-2.901,65.776c-3.105,0.18-6.353,0.206-9.147-0.279
	c-1.689-2.661-3.833-6.831-4.916-10.887c-0.695-2.606-1.363-5.068,0.546-6.42c0.464,0.13,0.801,0.391,1.501,0.281
	c0.617-0.313,1.027-1.055,0.683-1.955c1.281-0.643,2.546-1.304,3.823-1.953C-8.584,52.326-6.085,59.4-2.901,65.776z M-10.684,30.049
	c-0.471,1.335-0.821,4.421-0.683,7.257c0.069,1.397,0.633,3.109,0.41,3.906c-0.271,0.972-3.009,2.452-3.687,3.071
	c-1.242,1.14-2.172,2.558-3.413,3.073C-18.303,38.821-15.87,33.028-10.684,30.049z M-14.506,31.864
	c-2.742,3.042-4.635,7.394-4.916,12.977c-0.051,1.016,0.337,2.313,0.136,3.349c-0.191,0.99-1.703,2.043-2.321,2.931
	c-0.857,1.232-1.383,2.279-1.639,3.63C-24.683,44.281-20.013,36.614-14.506,31.864z M-21.197,52.797
	c-0.399,1.64-1.492,3.776-1.229,6.559C-23.419,57.107-22.167,54.343-21.197,52.797z M-21.333,59.356
	c-0.272-3.07,1.211-5.553,2.321-7.678c1.059,5.107,2.836,9.476,5.052,13.398c-2.599-0.598-4.784-1.623-6.554-3.07
	C-18.445,61.811-19.355,57.978-21.333,59.356z M-16.281,65.776c1.447,0.54,3.235,0.772,4.232,1.814
	c-3.355-0.059-6.337-1.71-8.192-3.769C-19.166,64.428-17.87,65.181-16.281,65.776z M2.697,77.635
	c-11.376,0.846-18.255-5.622-22.665-12.279c1.383,1.234,2.873,2.342,5.188,3.07c1.086,0.342,2.414,0.254,3.55,0.699
	c1.06,0.413,2.062,1.915,3.004,2.789c3.317,3.084,8.484,6.348,14.746,4.885C5.307,77.268,4.003,77.54,2.697,77.635z M6.656,66.334
	c-1.028-0.027-0.696,1.335-1.092,1.954c-0.69-0.554-1.089-1.399-1.365-2.374c1.505-0.182,2.601-0.784,3.959-1.115
	c0.25,1.418,1.004,2.322,1.638,3.35c0.106,2.804-0.089,5.302-0.956,7.115C7.079,73.303,6.639,69.706,6.656,66.334L6.656,66.334z
	 M19.082,91.174c-4.468-3.574-6.544-9.593-9.694-14.514c0.921-0.78,2.2-1.195,3.277-1.814c1.573,6.066,3.963,11.299,6.554,16.328
	C19.409,91.341,19.23,91.227,19.082,91.174z"/>
</svg>
