<?xml version="1.0" encoding="utf-8"?>
<!-- Generator: Adobe Illustrator 27.5.0, SVG Export Plug-In . SVG Version: 6.00 Build 0)  -->
<svg version="1.1" xmlns="http://www.w3.org/2000/svg" xmlns:xlink="http://www.w3.org/1999/xlink" x="0px" y="0px"
	 viewBox="0 0 500 500" style="enable-background:new 0 0 500 500;" xml:space="preserve">
<g id="BACKGROUND">
	<rect style="fill:#FAECCE;" width="500" height="500"/>
</g>
<g id="OBJECTS">
	<g>
		<defs>
			<rect id="SVGID_1_" y="187.614" width="500" height="261.173"/>
		</defs>
		<clipPath id="SVGID_00000025445292984884583820000015138417924263149697_">
			<use xlink:href="#SVGID_1_"  style="overflow:visible;"/>
		</clipPath>
		<g style="clip-path:url(#SVGID_00000025445292984884583820000015138417924263149697_);">
			<polygon style="fill:#FFFFFF;" points="35.171,244.739 31.897,251.755 35.82,258.43 28.135,257.484 22.999,263.278 
				21.525,255.677 14.427,252.583 21.2,248.832 21.95,241.125 27.611,246.408 			"/>
			<polygon style="fill:#FFFFFF;" points="12.737,199.486 9.462,206.502 13.385,213.177 5.701,212.231 0.565,218.025 -0.91,210.424 
				-8.007,207.33 -1.234,203.579 -0.485,195.872 5.176,201.155 			"/>
			<polygon style="fill:#FFFFFF;" points="485.481,252.906 482.207,259.922 486.13,266.598 478.446,265.651 473.31,271.445 
				471.835,263.844 464.738,260.75 471.511,256.999 472.26,249.293 477.921,254.575 			"/>
			<polygon style="fill:#FFFFFF;" points="441.803,382.2 435.173,386.198 434.708,393.927 428.856,388.857 421.362,390.802 
				424.376,383.67 420.21,377.144 427.924,377.807 432.843,371.828 434.597,379.37 			"/>
			<polygon style="fill:#FFFFFF;" points="431.107,288.391 424.477,292.389 424.011,300.118 418.16,295.047 410.666,296.993 
				413.68,289.861 409.514,283.335 417.228,283.998 422.147,278.019 423.901,285.56 			"/>
			<polygon style="fill:#FFFFFF;" points="59.871,308.15 58.234,311.658 60.195,314.996 56.353,314.522 53.785,317.419 
				53.048,313.619 49.499,312.072 52.886,310.196 53.26,306.343 56.091,308.984 			"/>
			<polygon style="fill:#FFFFFF;" points="450.297,237.394 448.66,240.902 450.622,244.24 446.779,243.767 444.211,246.664 
				443.474,242.863 439.925,241.316 443.312,239.44 443.687,235.587 446.517,238.229 			"/>
			<polygon style="fill:#FFFFFF;" points="70.567,222.875 68.93,226.383 70.892,229.72 67.05,229.247 64.482,232.144 
				63.744,228.344 60.195,226.797 63.582,224.921 63.957,221.068 66.787,223.709 			"/>
			<polygon style="fill:#FFFFFF;" points="491.154,209.081 489.517,212.589 491.478,215.926 487.636,215.453 485.068,218.35 
				484.331,214.549 480.782,213.002 484.169,211.127 484.543,207.274 487.374,209.915 			"/>
			<polygon style="fill:#FFFFFF;" points="187.064,288.377 185.427,291.885 187.389,295.223 183.546,294.75 180.978,297.647 
				180.241,293.846 176.692,292.299 180.079,290.423 180.454,286.57 183.284,289.211 			"/>
			<polygon style="fill:#FFFFFF;" points="430.682,329.978 429.045,333.486 431.007,336.823 427.164,336.35 424.596,339.247 
				423.859,335.446 420.31,333.899 423.697,332.024 424.072,328.171 426.902,330.812 			"/>
			<polygon style="fill:#FFFFFF;" points="27.459,292.749 21.861,304.744 28.568,316.157 15.43,314.539 6.649,324.445 4.127,311.45 
				-8.007,306.16 3.573,299.746 4.854,286.57 14.533,295.602 			"/>
			<polygon style="fill:#FFFFFF;" points="72.834,357.728 59.619,368.034 60.616,384.762 46.731,375.379 31.13,381.497 
				35.764,365.392 25.124,352.444 41.872,351.875 50.898,337.754 56.616,353.508 			"/>
			<polygon style="fill:#FFFFFF;" points="492.984,314.818 479.768,325.123 480.766,341.852 466.881,332.468 451.28,338.586 
				455.913,322.481 445.274,309.534 462.022,308.964 471.048,294.844 476.765,310.597 			"/>
		</g>
	</g>
	<g>
		<path style="fill:#599D3D;" d="M500,300.46V500H0V300.46c0,0,69.38,158.03,266.23,158.03C463.09,458.49,500,300.46,500,300.46z"/>
		<g>
			<path style="fill:#F0C631;" d="M500,339.9v41.4c-7.52,11.45-17.81,24.58-31.61,37.71c-22.07,20.99-48.64,37.7-78.98,49.67
				c-37.6,14.83-81.11,22.35-129.3,22.35c-48.25,0-92.89-8.33-132.68-24.77c-31.95-13.19-60.83-31.6-85.84-54.7
				C23.09,394.47,9.51,377.43,0,363.46v-37.82c3.54,7.6,19.99,40.31,55.15,72.57c53.38,48.99,122.34,73.82,204.96,73.82
				c81.27,0,148.49-22.84,194.39-66.04c34.66-32.62,45.37-65.77,45.47-66.1L500,339.9z"/>
		</g>
	</g>
	<g>
		<g>
			<g>
				<path style="fill:#1A2C38;" d="M213.883,207.211c5.186,2.207,10.3,5.703,12.162,11.022c3.19,9.113-4.349,19.285-1.559,28.529
					c1.213,4.019,4.226,7.227,6.039,11.014c4.205,8.783,0.688,20.493-7.661,25.505c-4.931,2.96-10.972,3.635-16.681,2.941
					c-5.709-0.694-11.177-2.664-16.555-4.701c-2.349-0.89-4.714-1.807-6.799-3.209c-5.716-3.843-8.584-10.947-8.853-17.83
					c-0.269-6.882,1.717-13.643,3.967-20.153c3.772-10.909,8.139-22.034,13.845-32.095
					C196.986,199.071,206.043,203.875,213.883,207.211z"/>
				<path style="fill:#1A2C38;" d="M110.56,225.665c-0.252,1.395-0.373,2.845-0.995,4.119c-1.958,4.014-7.424,4.298-11.885,4.501
					c-5.653,0.258-11.436,1.366-16.157,4.485c-4.721,3.119-8.189,8.561-7.76,14.203c0.274,3.598,2.056,7.163,1.218,10.672
					c-0.902,3.776-4.614,6.244-8.335,7.35c-3.721,1.106-7.682,1.236-11.39,2.386c-6.173,1.914-11.443,6.904-13.142,13.139
					c-1.699,6.236,0.524,13.502,5.758,17.293c2.592,1.877,5.796,2.918,8.029,5.211c3.121,3.205,3.646,8.127,3.282,12.585
					c-0.364,4.459-1.437,8.925-0.834,13.357c1.299,9.543,11.468,16.899,20.938,15.145c8.442-1.564,14.467-8.758,21.44-13.768
					c12-8.62,27.258-10.9,41.816-13.423c8.561-1.484,18.26-3.978,22.149-11.748c2.54-5.074,1.844-11.069,1.862-16.743
					c0.024-7.25,1.315-14.435,1.739-21.672c0.847-14.454-1.767-28.861-4.369-43.104c-0.514-2.815-1.041-5.668-2.279-8.247
					c-3.797-7.908-13.399-11.385-22.171-11.459c-6.741-0.057-12.564-2.522-18.598,1.087
					C115.611,214.183,111.653,219.598,110.56,225.665z"/>
				<g>
					<g>
						<polygon style="fill:#CC5E33;" points="88.479,432.334 78.501,499.977 240.594,499.977 220.4,451.637 						"/>
						<path style="fill:none;stroke:#1A2C38;stroke-width:2;stroke-linecap:round;stroke-linejoin:round;stroke-miterlimit:10;" d="
							M93.309,478.668c0,0,31.712,14.352,36.983-24.856"/>
						<g>
							<g>
								
									<line style="fill:none;stroke:#1A2C38;stroke-width:2;stroke-linecap:round;stroke-linejoin:round;" x1="102.327" y1="440.905" x2="101.747" y2="443.336"/>
								
									<line style="fill:none;stroke:#1A2C38;stroke-width:2;stroke-linecap:round;stroke-linejoin:round;stroke-dasharray:4.9654,4.9654;" x1="100.593" y1="448.166" x2="89.636" y2="494.048"/>
								
									<line style="fill:none;stroke:#1A2C38;stroke-width:2;stroke-linecap:round;stroke-linejoin:round;" x1="89.059" y1="496.462" x2="88.478" y2="498.894"/>
							</g>
						</g>
					</g>
					<path style="fill:#3E6F43;" d="M232.648,438.555c-47.559,61.824-144.17-6.384-144.17-6.384l14.21-90.108l71.719-72.928
						c5.122-0.255,9.703-0.032,13.775,0.509c2.142,0.286,4.136,0.647,5.992,1.082c14.528,3.393,20.785,10.679,20.785,10.679
						L232.648,438.555z"/>
					<g>
						<path style="fill:#9E6D53;" d="M168.299,297.831c-14.974-7.349-26.533-28.696-26.533-28.696
							c13.542-0.276,12.439-19.247,12.439-19.247l27.36,11.124l-0.976,4.019l-0.976,4.009c0.042,0.011,0.096,0.021,0.138,0.042
							c7.243,1.951,12.842,12.545,12.471,19.29C193.666,308.595,178.893,303.038,168.299,297.831z"/>
						<path style="fill:#1A2C38;" d="M179.614,269.04c0.042,0.011,0.096,0.021,0.138,0.042c-2.004,3.075-6.988,0.859-10.403-2.078
							c-18.06-15.504,4.846-6.363,11.241-1.973L179.614,269.04z"/>
					</g>
				</g>
			</g>
			<g>
				<path style="fill:#9E6D53;" d="M203.517,246.462c-1.071,3.627-2.725,7.148-5.058,10.371c-0.159,0.233-0.329,0.467-0.509,0.7
					c-9.078,11.962-27.095,12.81-37.307,1.792c-5.864-6.31-9.735-14.571-8.77-21.983c-11.538-1.622-10.371-23.108,0.954-18.728
					c2.715,1.453,5.218,4.486,4.252,7.699C183.984,182.379,212.001,217.851,203.517,246.462z"/>
				<path style="fill:#1A2C38;" d="M150.102,218.098c2.559-0.232,3.79,2.579,4.277,4.683c6.417,16.564,22.511-2.155,27.282-10.704
					c4.733,6.959,26.158,12.027,26.956-0.524c6.409-30.029-14.86-15.38-26.026-26.107c-0.956-0.918-2.068-1.674-3.261-2.251
					c-13.717-6.64-15.288,8.871-24.828,10.299c-3.862-0.099-7.047-4.255-10.833-3.492c-5.826,1.483-4.653,9.453-7.772,13.372
					c-3.634,4.563-12.021,4.062-14.229,9.461c-1.693,4.139,2.064,8.869,6.412,9.914C135.605,224.47,142.815,219.221,150.102,218.098
					z"/>
				<g>
					<path style="fill:#1A2C38;" d="M185.09,237.338c0,1.368-1.109,2.477-2.477,2.477c-1.368,0-2.477-1.109-2.477-2.477
						c0-1.368,1.109-2.477,2.477-2.477C183.981,234.861,185.09,235.97,185.09,237.338z"/>
					<path style="fill:#1A2C38;" d="M202.238,241.309c0,1.368-1.109,2.477-2.477,2.477c-1.368,0-2.477-1.109-2.477-2.477
						c0-1.368,1.109-2.477,2.477-2.477C201.129,238.832,202.238,239.941,202.238,241.309z"/>
					<path style="fill:none;stroke:#1A2C38;stroke-width:2;stroke-linecap:round;stroke-linejoin:round;stroke-miterlimit:10;" d="
						M193.447,237.171c-0.996,2.704-1.544,5.572-1.616,8.453c-0.009,0.365-0.005,0.751,0.181,1.065
						c0.401,0.675,1.421,0.698,1.925,1.299c-0.444,1.27-1.861,2.12-3.19,1.912c-1.329-0.208-2.42-1.449-2.455-2.794"/>
					<path style="fill:none;stroke:#1A2C38;stroke-width:2;stroke-linecap:round;stroke-linejoin:round;stroke-miterlimit:10;" d="
						M182.051,250.511c0.364,2.571,2.954,4.615,5.539,4.371"/>
					<path style="fill:#CC5E33;" d="M180.22,244.703c0,3.208-2.6,5.808-5.808,5.808c-3.208,0-5.808-2.6-5.808-5.808
						s2.6-5.808,5.808-5.808C177.619,238.895,180.22,241.496,180.22,244.703z"/>
					<path style="fill:#CC5E33;" d="M203.517,246.462c-1.071,3.627-2.725,7.148-5.058,10.371c-1.623-1.029-2.704-2.853-2.704-4.91
						c0-3.213,2.598-5.811,5.811-5.811C202.255,246.113,202.913,246.229,203.517,246.462z"/>
					<path style="fill:none;stroke:#1A2C38;stroke-width:2;stroke-linecap:round;stroke-linejoin:round;stroke-miterlimit:10;" d="
						M178.579,227.555c2.415-0.883,5.195-1.461,7.486-0.294"/>
					<path style="fill:none;stroke:#1A2C38;stroke-width:2;stroke-linecap:round;stroke-linejoin:round;stroke-miterlimit:10;" d="
						M198.495,229.613c1.908-0.688,4.17-0.279,5.717,1.032"/>
					<path style="fill:none;stroke:#1A2C38;stroke-width:2;stroke-linecap:round;stroke-linejoin:round;stroke-miterlimit:10;" d="
						M148.055,224.232c1.291-0.553,2.834,0.327,3.506,1.56c0.672,1.233,0.699,2.702,0.709,4.106c-0.97-0.887-2.322-1.02-3.61-0.757"
						/>
				</g>
			</g>
		</g>
		<g>
			<polygon style="fill:#3E4778;" points="452.778,478.51 452.778,499.819 440.412,499.819 440.412,481.408 			"/>
			<polygon style="fill:#3E4778;" points="190.144,478.51 190.144,499.819 177.778,499.819 177.778,481.408 			"/>
			<polygon style="fill:#3E4778;" points="212.977,461.957 172.905,470.577 172.905,486.419 227.056,499.819 407.38,499.819 
				460.448,474.909 460.448,463.354 357.561,441.916 			"/>
		</g>
		<g>
			<g>
				<polygon style="fill:#FFFFFF;" points="209.186,180.085 209.186,469.75 326.965,490.465 326.965,133.723 				"/>
				<polygon style="fill:#FFFFFF;" points="326.965,133.723 409.817,133.723 409.817,455.957 326.965,490.465 				"/>
				<g>
					<polygon style="fill:#599D3D;" points="392.353,264.592 348.897,270.089 348.897,240.683 392.353,235.186 					"/>
					<polygon style="fill:#F0C631;" points="353.498,253.457 370.986,241.041 388.474,250.281 372.827,263.873 					"/>
					<circle style="fill:#3E4778;" cx="370.986" cy="252.107" r="6.25"/>
				</g>
				<g style="enable-background:new    ;">
					<g>
						<path style="fill:#3E4778;" d="M358.153,200.094c-0.453,0.024-0.837,0.168-1.173,0.425c-0.329,0.256-0.576,0.613-0.742,1.052
							c-0.165,0.448-0.236,0.958-0.207,1.521l0.119,2.278c0.03,0.572,0.155,1.081,0.366,1.51c0.211,0.429,0.493,0.748,0.848,0.969
							c0.362,0.23,0.758,0.323,1.211,0.3c0.446-0.023,0.837-0.159,1.167-0.405c0.33-0.247,0.585-0.575,0.751-1.005
							c0.167-0.42,0.232-0.901,0.204-1.435c-0.004-0.076-0.04-0.103-0.125-0.108l-1.309-0.027l-0.089,0.033l-0.023,0.097
							c0.016,0.305-0.041,0.547-0.164,0.735c-0.123,0.198-0.292,0.292-0.508,0.304c-0.223,0.012-0.402-0.065-0.544-0.249
							c-0.142-0.174-0.217-0.409-0.233-0.714l-0.126-2.411c-0.016-0.315,0.034-0.556,0.156-0.754
							c0.123-0.188,0.292-0.293,0.515-0.304c0.216-0.011,0.395,0.075,0.537,0.249c0.143,0.184,0.225,0.418,0.241,0.733l0.104,0.119
							l0.021-0.001l1.297-0.183c0.083-0.023,0.116-0.063,0.112-0.13c-0.028-0.543-0.144-1.015-0.353-1.406
							c-0.21-0.4-0.498-0.71-0.852-0.911C359.003,200.164,358.6,200.071,358.153,200.094"/>
						<path style="fill:#3E4778;" d="M363.128,205.128l-0.038-0.065l0.383-2.553l0.026-0.03l0.022,0.027l0.662,2.498l-0.031,0.069
							L363.128,205.128 M364.244,199.87l-1.743,0.091c-0.07,0.004-0.116,0.054-0.132,0.141l-1.34,7.64
							c-0.021,0.125,0.017,0.19,0.115,0.185l1.408-0.074c0.077-0.004,0.123-0.054,0.131-0.16l0.135-0.886l0.04-0.04l1.743-0.091
							l0.044,0.036l0.227,0.867c0.019,0.104,0.071,0.149,0.147,0.145l1.408-0.074c0.077-0.004,0.109-0.053,0.105-0.13l-0.011-0.066
							l-2.131-7.458C364.365,199.912,364.313,199.867,364.244,199.87"/>
						<path style="fill:#3E4778;" d="M368.535,205.724l-0.045-0.055l-0.062-1.182l0.039-0.059l0.753-0.04
							c0.383-0.02,0.589,0.179,0.611,0.599c0.023,0.448-0.16,0.677-0.551,0.698L368.535,205.724 M368.377,202.712l-0.045-0.055
							l-0.059-1.125l0.039-0.059l0.669-0.035c0.404-0.021,0.617,0.168,0.639,0.588c0.021,0.41-0.17,0.63-0.574,0.651
							L368.377,202.712 M368.886,199.627l-2.133,0.112l-0.088,0.052l-0.028,0.126l0.395,7.53l0.041,0.122l0.093,0.043l2.21-0.116
							c0.627-0.033,1.134-0.241,1.512-0.624c0.371-0.392,0.544-0.965,0.503-1.737c-0.022-0.41-0.103-0.759-0.23-1.049
							c-0.134-0.289-0.328-0.518-0.582-0.696l-0.004-0.067c0.402-0.336,0.583-0.872,0.546-1.577c-0.042-0.81-0.254-1.373-0.62-1.688
							C370.129,199.734,369.59,199.59,368.886,199.627"/>
						<polyline style="fill:#3E4778;" points="373.11,199.406 371.807,199.474 371.719,199.526 371.69,199.652 372.085,207.182 
							372.126,207.304 372.22,207.347 373.523,207.278 373.611,207.226 373.633,207.101 373.238,199.571 373.204,199.449 
							373.11,199.406 						"/>
						<polyline style="fill:#3E4778;" points="378.52,199.122 377.216,199.191 377.135,199.243 377.107,199.368 377.309,203.104 
							377.298,203.162 377.262,203.135 375.389,199.401 375.236,199.294 373.996,199.359 373.908,199.412 373.879,199.537 
							374.274,207.067 374.315,207.189 374.408,207.232 375.705,207.164 375.793,207.112 375.821,206.986 375.611,203.241 
							375.622,203.193 375.659,203.219 377.539,206.953 377.691,207.06 378.932,206.995 379.02,206.943 379.049,206.817 
							378.654,199.287 378.613,199.165 378.52,199.122 						"/>
						<polyline style="fill:#3E4778;" points="383.329,198.87 379.405,199.076 379.317,199.128 379.295,199.254 379.69,206.783 
							379.724,206.906 379.817,206.949 383.742,206.743 383.83,206.69 383.858,206.565 383.781,205.087 383.74,204.975 
							383.647,204.932 381.186,205.061 381.142,205.006 381.08,203.834 381.119,203.774 382.645,203.694 382.734,203.651 
							382.756,203.526 382.679,202.058 382.644,201.936 382.552,201.902 381.025,201.982 380.98,201.927 380.925,200.869 
							380.964,200.81 383.424,200.681 383.512,200.629 383.541,200.503 383.464,199.035 383.422,198.913 383.329,198.87 						"/>
						<path style="fill:#3E4778;" d="M349.772,217.144l-0.045-0.055l-0.217-4.146l0.039-0.05l0.697-0.036
							c0.202-0.011,0.367,0.076,0.496,0.27c0.129,0.194,0.205,0.448,0.222,0.772l0.109,2.087c0.01,0.324-0.039,0.585-0.147,0.791
							c-0.115,0.207-0.263,0.32-0.444,0.329L349.772,217.144 M350.102,211.048l-2.112,0.111l-0.089,0.043l-0.028,0.126l0.395,7.539
							l0.041,0.122l0.093,0.033l2.112-0.111c0.446-0.023,0.838-0.149,1.169-0.377c0.33-0.228,0.58-0.537,0.748-0.928
							c0.161-0.391,0.236-0.834,0.209-1.339l-0.147-2.812c-0.026-0.505-0.147-0.938-0.348-1.31
							c-0.208-0.371-0.489-0.653-0.841-0.845C350.951,211.109,350.548,211.025,350.102,211.048"/>
						<polyline style="fill:#3E4778;" points="356.996,210.687 353.072,210.892 352.983,210.935 352.962,211.061 353.357,218.6 
							353.391,218.722 353.484,218.756 357.408,218.55 357.497,218.507 357.525,218.381 357.448,216.904 357.406,216.782 
							357.314,216.749 354.853,216.878 354.808,216.822 354.747,215.65 354.786,215.591 356.305,215.511 356.4,215.458 
							356.422,215.333 356.345,213.875 356.311,213.752 356.211,213.71 354.691,213.789 354.647,213.734 354.591,212.676 
							354.63,212.627 357.091,212.498 357.179,212.445 357.207,212.32 357.13,210.842 357.089,210.72 356.996,210.687 						"/>
						<path style="fill:#3E4778;" d="M363.967,210.321l-1.373,0.072c-0.07,0.004-0.109,0.053-0.118,0.15l-0.553,4.788l-0.026,0.04
							l-0.023-0.037l-1.071-4.703c-0.019-0.094-0.07-0.14-0.14-0.136l-1.408,0.074c-0.077,0.004-0.11,0.044-0.105,0.139l0.01,0.057
							l2.012,7.445l0.061,0.102l0.093,0.033l1.387-0.073l0.089-0.043l0.043-0.107l1.243-7.615l-0.022-0.142L363.967,210.321"/>
						<path style="fill:#3E4778;" d="M366.808,216.385c-0.223,0.012-0.41-0.084-0.56-0.286c-0.15-0.193-0.234-0.466-0.252-0.809
							l-0.116-2.211c-0.018-0.343,0.037-0.623,0.166-0.831c0.129-0.217,0.304-0.331,0.527-0.343c0.23-0.012,0.424,0.083,0.574,0.285
							c0.15,0.193,0.234,0.466,0.252,0.809l0.116,2.211c0.018,0.343-0.037,0.623-0.166,0.831
							C367.221,216.258,367.038,216.373,366.808,216.385 M366.478,210.094c-0.453,0.024-0.844,0.169-1.18,0.435
							c-0.336,0.266-0.589,0.633-0.761,1.091c-0.165,0.458-0.235,0.978-0.204,1.569l0.11,2.106c0.031,0.6,0.157,1.129,0.369,1.567
							c0.219,0.447,0.51,0.786,0.871,1.015c0.362,0.229,0.766,0.342,1.219,0.318c0.46-0.024,0.864-0.179,1.193-0.445
							c0.336-0.266,0.589-0.633,0.76-1.101c0.165-0.458,0.234-0.997,0.203-1.597l-0.11-2.106c-0.031-0.591-0.156-1.1-0.367-1.539
							c-0.219-0.438-0.509-0.776-0.871-1.006C367.356,210.173,366.938,210.07,366.478,210.094"/>
						<polyline style="fill:#3E4778;" points="373.6,209.817 369.25,210.044 369.162,210.087 369.133,210.213 369.211,211.7 
							369.253,211.822 369.346,211.865 370.684,211.795 370.729,211.85 371.034,217.673 371.076,217.795 371.168,217.829 
							372.465,217.761 372.553,217.718 372.582,217.592 372.276,211.769 372.315,211.709 373.695,211.637 373.784,211.585 
							373.812,211.459 373.734,209.972 373.693,209.85 373.6,209.817 						"/>
						<path style="fill:#3E4778;" d="M375.983,214.881l-0.038-0.065l0.391-2.544l0.019-0.03l0.029,0.027l0.655,2.489l-0.024,0.068
							L375.983,214.881 M377.099,209.633l-1.743,0.091c-0.07,0.004-0.117,0.044-0.132,0.141l-1.341,7.63
							c-0.021,0.135,0.024,0.19,0.122,0.185l1.408-0.074c0.07-0.004,0.116-0.054,0.125-0.15l0.142-0.887l0.032-0.049l1.743-0.091
							l0.044,0.045l0.227,0.867c0.026,0.094,0.07,0.14,0.147,0.136l1.408-0.074c0.077-0.004,0.116-0.044,0.112-0.13l-0.017-0.066
							l-2.124-7.448C377.22,209.665,377.176,209.629,377.099,209.633"/>
						<path style="fill:#3E4778;" d="M381.451,209.31c-0.453,0.024-0.844,0.168-1.173,0.425c-0.329,0.256-0.576,0.613-0.742,1.052
							c-0.165,0.448-0.237,0.949-0.207,1.521l0.119,2.278c0.037,0.705,0.208,1.298,0.52,1.779c0.311,0.471,0.719,0.784,1.216,0.921
							l0.021,0.008l0.029,0.027c0.279,0.253,0.416,0.466,0.425,0.637l-0.046,0.194l-0.15,0.065l-0.119-0.013l-0.064-0.025
							l-0.077,0.128l-0.025,0.728c-0.008,0.106,0.016,0.171,0.081,0.206c0.18,0.096,0.385,0.142,0.608,0.131
							c0.202-0.011,0.373-0.077,0.514-0.199c0.147-0.132,0.241-0.328,0.276-0.598c0.021-0.135,0.022-0.24,0.019-0.297
							c-0.016-0.314-0.138-0.624-0.363-0.918l0.017-0.068c0.545-0.134,0.969-0.452,1.271-0.946c0.302-0.503,0.431-1.112,0.393-1.837
							c-0.004-0.067-0.047-0.103-0.125-0.108l-1.308-0.017l-0.09,0.024l-0.029,0.107c0.015,0.295-0.034,0.547-0.157,0.735
							c-0.123,0.188-0.292,0.293-0.508,0.304c-0.223,0.012-0.402-0.074-0.544-0.249c-0.142-0.174-0.218-0.419-0.233-0.714
							l-0.127-2.421c-0.016-0.305,0.034-0.556,0.157-0.744c0.123-0.188,0.292-0.292,0.515-0.304
							c0.216-0.011,0.395,0.075,0.537,0.249c0.142,0.174,0.218,0.419,0.234,0.724l0.111,0.118l0.021-0.001l1.297-0.183
							c0.076-0.014,0.117-0.035,0.115-0.073l-0.003-0.057c-0.028-0.534-0.143-1.006-0.353-1.406c-0.217-0.4-0.498-0.7-0.851-0.901
							C382.3,209.38,381.897,209.286,381.451,209.31"/>
						<path style="fill:#3E4778;" d="M386.418,214.334l-0.038-0.065l0.391-2.544l0.019-0.03l0.029,0.027l0.655,2.489l-0.024,0.068
							L386.418,214.334 M387.541,209.086l-1.75,0.092c-0.07,0.004-0.11,0.044-0.133,0.141l-1.341,7.63
							c-0.014,0.135,0.024,0.19,0.122,0.185l1.408-0.074c0.077-0.004,0.116-0.054,0.132-0.15l0.135-0.886l0.032-0.049l1.75-0.092
							l0.037,0.046l0.227,0.867c0.026,0.094,0.07,0.14,0.147,0.136l1.408-0.074c0.077-0.004,0.116-0.044,0.112-0.13l-0.01-0.066
							l-2.131-7.448C387.655,209.118,387.611,209.082,387.541,209.086 M385.977,206.979c-0.216,0.011-0.401,0.088-0.56,0.249
							c-0.16,0.152-0.282,0.349-0.361,0.573l-0.023,0.097l0.056,0.131l0.482,0.653l0.079,0.044l0.088-0.052
							c0.097-0.148,0.233-0.222,0.407-0.232l0.176,0.029c0.064,0.016,0.143,0.059,0.25,0.111c0.108,0.052,0.201,0.095,0.286,0.119
							c0.078,0.025,0.177,0.039,0.302,0.032c0.237-0.012,0.442-0.1,0.602-0.242c0.167-0.152,0.269-0.329,0.328-0.543l-0.044-0.179
							l-0.441-0.675l-0.073-0.063l-0.094,0.081c-0.083,0.148-0.198,0.23-0.351,0.238l-0.177-0.038
							c-0.057-0.016-0.136-0.06-0.243-0.111c-0.022-0.018-0.072-0.044-0.144-0.078c-0.079-0.034-0.157-0.068-0.25-0.102
							C386.187,206.987,386.089,206.973,385.977,206.979"/>
						<path style="fill:#3E4778;" d="M392.244,215.052c-0.223,0.012-0.41-0.084-0.56-0.286c-0.15-0.193-0.234-0.466-0.252-0.809
							l-0.116-2.211c-0.018-0.343,0.037-0.623,0.166-0.831c0.128-0.217,0.304-0.331,0.527-0.343c0.23-0.012,0.424,0.083,0.574,0.285
							c0.15,0.193,0.234,0.466,0.252,0.809l0.116,2.211c0.018,0.343-0.037,0.623-0.166,0.831
							C392.656,214.925,392.474,215.04,392.244,215.052 M391.914,208.761c-0.453,0.024-0.844,0.169-1.18,0.435
							c-0.335,0.266-0.589,0.633-0.761,1.091c-0.165,0.458-0.235,0.978-0.204,1.569l0.11,2.106c0.031,0.6,0.157,1.129,0.369,1.567
							c0.219,0.447,0.509,0.786,0.871,1.015c0.362,0.23,0.766,0.342,1.219,0.318c0.46-0.024,0.857-0.179,1.193-0.445
							c0.336-0.266,0.589-0.633,0.76-1.101c0.165-0.458,0.234-0.997,0.203-1.597l-0.11-2.106c-0.031-0.591-0.156-1.1-0.367-1.539
							c-0.219-0.438-0.509-0.776-0.871-1.006C392.785,208.84,392.374,208.737,391.914,208.761"/>
					</g>
				</g>
			</g>
			<polygon style="fill:#FAECCE;" points="326.965,430.762 409.817,407.42 409.817,455.957 326.965,490.465 			"/>
			<polygon style="opacity:0.27;fill:#3E4778;" points="378.728,416.178 378.728,448.942 326.965,465.884 326.965,430.762 			"/>
			
				<line style="fill:none;stroke:#1A2C38;stroke-width:2;stroke-linecap:round;stroke-linejoin:round;stroke-miterlimit:10;" x1="326.965" y1="430.762" x2="409.817" y2="407.42"/>
			<g>
				<path style="fill:#CC5E33;" d="M356.749,438.628c0,1.363-1.105,2.469-2.469,2.469c-1.363,0-2.469-1.105-2.469-2.469
					c0-1.363,1.105-2.469,2.469-2.469C355.643,436.159,356.749,437.265,356.749,438.628z"/>
				<circle style="fill:#1A2C38;" cx="361.758" cy="436.159" r="2.397"/>
				<path style="fill:#1A2C38;" d="M347.331,444.186l-14.565,4.576c-1.341,0.421-2.696-0.61-2.647-2.015l0.081-2.309
					c0.03-0.86,0.598-1.609,1.418-1.87l14.484-4.607c1.314-0.418,2.655,0.563,2.655,1.941v2.341
					C348.758,443.133,348.18,443.92,347.331,444.186z"/>
				<path style="fill:none;stroke:#1A2C38;stroke-width:2;stroke-linecap:round;stroke-linejoin:round;stroke-miterlimit:10;" d="
					M362.296,436.388c4.316-1.622,9.191-0.152,13.259,2.019c4.069,2.17,7.802,5.05,12.175,6.512
					c4.373,1.462,9.81,1.134,12.814-2.365c0.933-1.086,1.6-2.533,1.061-3.969c-0.273-0.728-0.916-1.308-1.686-1.415
					c-1.884-0.263-2.795,2.08-2.314,3.766c0.749,2.628,3.385,4.199,5.864,5.351c9.65,4.487,20.609,6.862,28.503,13.999
					c2.659,2.404,4.988,5.596,4.944,9.18c-0.033,2.662-1.428,5.207-3.455,6.934c-2.027,1.726-4.631,2.683-7.271,3.031
					c-0.533,0.07-1.112,0.086-1.675,0.028c-1.581-0.165-1.291-2.622,0.289-2.45c1.551,0.17,3.144,0.841,4.559,1.549
					c4.42,2.214,8.734,4.818,12.084,8.453c3.35,3.635,5.67,8.428,5.501,13.368"/>
				<path style="fill:none;stroke:#1A2C38;stroke-width:2;stroke-linecap:round;stroke-linejoin:round;stroke-miterlimit:10;" d="
					M354.348,438.138c6.665,2.43,12.119,7.975,14.44,14.679c0.554,1.602,0.939,3.335,0.56,4.987s-1.699,3.184-3.387,3.343
					c-0.691,0.065-1.449-0.134-1.876-0.682c-0.819-1.052,0.151-2.728,1.449-3.036c1.297-0.308,2.627,0.316,3.749,1.036
					c5.943,3.816,9.464,10.615,15.375,14.479c5.66,3.7,12.753,4.247,19.129,6.501c4.571,1.616,8.858,4.177,12.148,7.739
					c3.29,3.561,5.54,8.157,5.926,12.991"/>
			</g>
			
				<line style="fill:none;stroke:#1A2C38;stroke-width:2;stroke-linecap:round;stroke-linejoin:round;stroke-miterlimit:10;" x1="326.965" y1="133.723" x2="326.965" y2="490.465"/>
			<g>
				
					<polyline style="fill:none;stroke:#1A2C38;stroke-width:2;stroke-linecap:round;stroke-linejoin:round;stroke-miterlimit:10;" points="
					378.728,448.942 409.817,455.957 409.817,351.986 				"/>
				
					<polyline style="fill:none;stroke:#1A2C38;stroke-width:2;stroke-linecap:round;stroke-linejoin:round;stroke-miterlimit:10;" points="
					374.889,133.723 409.817,133.723 409.817,351.986 				"/>
			</g>
		</g>
		<g>
			<g>
				<path style="fill:#9E6D53;" d="M136.081,332.491c-1.016,14.143-8.584,37.754-9.573,51.715
					c23.154,24.347,51.809,49.298,84.777,60.517c3.941,1.895,11.623,3.751,16.225,5.948c1.769,0.845,1.364,3.466-0.58,3.72
					c-4.476,0.584-9.077,0.804-13.427,0.013c2.214,6.131,8.364,11.065,13.997,15.075c1.129,0.804,0.445,2.571-0.933,2.422
					c-6.205-0.671-12.951-3.05-17.74-6.325c3.229,4.966,10.062,8.255,15.553,11.106c1.785,0.927,2.26,3.37,0.821,4.776
					c-0.532,0.52-1.183,0.786-1.881,0.513c0.597,3.461-3.806,5.188-6.341,3.626c-7.512,10.904-37.272-21.755-41.025-29.819
					c-33.522-13.725-67.782-27.63-87.475-43.684c-12.068-9.837-14.412-28.604-9.978-43.682l5.757-36.22
					c1.057-6.65,6.151-12.048,12.79-13.176c9.091-1.545,19.743-0.029,27.87,1.179C132.757,322.251,130.186,326.842,136.081,332.491z
					"/>
				<path style="fill:none;stroke:#1A2C38;stroke-width:2;stroke-linecap:round;stroke-linejoin:round;stroke-miterlimit:10;" d="
					M127.688,384.206c0,0-5.505-8.935-25.361-4.242"/>
				<path style="fill:none;stroke:#1A2C38;stroke-width:2;stroke-linecap:round;stroke-linejoin:round;stroke-miterlimit:10;" d="
					M202.959,458.142c0,0,7.684,13.186,23.607,13.758"/>
				<path style="fill:none;stroke:#1A2C38;stroke-width:2;stroke-linecap:round;stroke-linejoin:round;stroke-miterlimit:10;" d="
					M223.32,481.97c0,0-12.076,1.411-22.256-13.932"/>
				<path style="fill:none;stroke:#1A2C38;stroke-width:2;stroke-linecap:round;stroke-linejoin:round;stroke-miterlimit:10;" d="
					M216.979,485.596c0,0-9.778-1.12-20.067-12.492"/>
			</g>
			<g>
				<path style="fill:#3E6F43;" d="M141.768,269.134c0,0-60.559,12.545-61.101,72.924c0,0,25.361,27.256,56.498,13.177
					l22.489-63.336C159.654,291.898,149.89,280.235,141.768,269.134z"/>
				<path style="fill:none;stroke:#1A2C38;stroke-width:2;stroke-linecap:round;stroke-linejoin:round;stroke-miterlimit:10;" d="
					M91,350.37c0,0,23.963,16.778,46.165,4.865l8.94-25.179"/>
			</g>
			<g>
				<path style="fill:#FFFFFF;" d="M143.758,276.292c0,1.697-1.376,3.073-3.073,3.073s-3.073-1.376-3.073-3.073
					c0-1.697,1.376-3.073,3.073-3.073S143.758,274.595,143.758,276.292z"/>
				<path style="fill:#FFFFFF;" d="M151.128,288.476c0,1.697-1.376,3.073-3.073,3.073s-3.073-1.376-3.073-3.073
					s1.376-3.073,3.073-3.073S151.128,286.779,151.128,288.476z"/>
				<path style="fill:#FFFFFF;" d="M162.62,297.411c0,1.697-1.376,3.073-3.073,3.073c-1.697,0-3.073-1.376-3.073-3.073
					s1.376-3.073,3.073-3.073C161.245,294.338,162.62,295.714,162.62,297.411z"/>
				<path style="fill:#FFFFFF;" d="M174.642,303.557c0,1.697-1.376,3.073-3.073,3.073c-1.697,0-3.073-1.376-3.073-3.073
					s1.376-3.073,3.073-3.073C173.266,300.484,174.642,301.86,174.642,303.557z"/>
				<path style="fill:#FFFFFF;" d="M190.664,306.63c0,1.697-1.376,3.073-3.073,3.073s-3.073-1.376-3.073-3.073
					c0-1.697,1.376-3.073,3.073-3.073S190.664,304.933,190.664,306.63z"/>
				<circle style="fill:#FFFFFF;" cx="195.755" cy="297.411" r="3.073"/>
				<path style="fill:#FFFFFF;" d="M198.828,284.146c0,1.697-1.376,3.073-3.073,3.073s-3.073-1.376-3.073-3.073
					s1.376-3.073,3.073-3.073S198.828,282.449,198.828,284.146z"/>
				<path style="fill:#FFFFFF;" d="M194.175,270.726c-0.074,1.622-1.421,2.906-3.065,2.906c-1.697,0-3.065-1.368-3.065-3.065
					c0-0.318,0.053-0.636,0.138-0.923C190.325,269.931,192.319,270.291,194.175,270.726z"/>
			</g>
		</g>
	</g>
</g>
<g id="TEXTS">
	<g>
		<text transform="matrix(1 0 0 1 153.6385 68.1631)"><tspan x="0" y="0" style="fill:#3E4778; font-family:'Barlow-Black'; font-size:48.6316px;">Seu voto</tspan><tspan x="-76.229" y="45" style="fill:#3E4778; font-family:'Barlow-Black'; font-size:48.6316px;">faz a </tspan><tspan x="38.394" y="45" style="fill:#599D3D; font-family:'Barlow-Black'; font-size:48.6316px;">diferença</tspan><tspan x="251.446" y="45" style="fill:#3E4778; font-family:'Barlow-Black'; font-size:48.6316px;">!</tspan></text>
	</g>
</g>
</svg>
